<svg viewBox="0 0 64 64" fill="none" xmlns="http://www.w3.org/2000/svg">
  <rect width="64" height="64" rx="16" fill="#020617"/>
  <defs>
    <linearGradient id="top" x1="8" y1="8" x2="52" y2="36">
      <stop offset="0%" stop-color="#22d3ee"/>
      <stop offset="100%" stop-color="#2563eb"/>
    </linearGradient>
    <linearGradient id="bottom" x1="12" y1="28" x2="56" y2="58">
      <stop offset="0%" stop-color="#6366f1"/>
      <stop offset="55%" stop-color="#8b5cf6"/>
      <stop offset="100%" stop-color="#c026d3"/>
    </linearGradient>
  </defs>
  <path d="M10 18 L32 8 L54 18 L46 28 L32 24 L18 28 Z" fill="url(#top)"/>
  <path d="M46 28 L54 18 L54 32 L42 38 L36 32 L46 28 Z" fill="#1e3a8a"/>
  <path d="M18 36 L32 40 L46 36 L54 46 L32 56 L10 46 L18 36 Z" fill="url(#bottom)"/>
  <path d="M10 18 L18 28 L18 36 L10 46 Z" fill="#4c1d95"/>
  <path d="M16 22 L32 16 L46 22 L40 25 L24 25 Z" fill="white" opacity="0.14"/>
</svg>
